<svg width="140" height="24" viewBox="0 0 140 24" fill="none" xmlns="http://www.w3.org/2000/svg">
<path d="M32.2511 6.89077C31.5405 6.87183 30.8349 7.01452 30.1866 7.30824C29.5383 7.60196 28.964 8.03915 28.5065 8.58732C27.5339 9.71717 27.0476 11.1061 27.0476 12.7541C27.0476 14.4021 27.5368 15.7945 28.5152 16.9314C28.971 17.4799 29.5435 17.9178 30.1903 18.2127C30.837 18.5077 31.5414 18.652 32.2511 18.6349C33.7865 18.6349 35.0411 18.0671 36.0148 16.9314C36.9886 15.7957 37.4749 14.4033 37.4737 12.7541C37.4737 11.1061 36.9874 9.71717 36.0148 8.58732C35.5539 8.03814 34.9763 7.60049 34.3248 7.30681C33.6733 7.01314 32.9645 6.87094 32.2511 6.89077ZM34.3227 15.3945C34.0843 15.7199 33.7735 15.9844 33.4152 16.1666C33.0569 16.3489 32.6611 16.4438 32.2598 16.4438C31.8584 16.4438 31.4627 16.3489 31.1044 16.1666C30.7461 15.9844 30.4352 15.7199 30.1968 15.3945C29.6456 14.6927 29.3699 13.8155 29.3699 12.7629C29.3699 11.7102 29.6456 10.8301 30.1968 10.1224C30.4352 9.79705 30.7461 9.53258 31.1044 9.35034C31.4627 9.1681 31.8584 9.07317 32.2598 9.07317C32.6611 9.07317 33.0569 9.1681 33.4152 9.35034C33.7735 9.53258 34.0843 9.79705 34.3227 10.1224C34.874 10.8242 35.1496 11.7043 35.1496 12.7629C35.1496 13.8214 34.874 14.6986 34.3227 15.3945Z" fill="white"/>
<path d="M46.897 14.2717C48.2096 13.6354 48.8659 12.5114 48.8659 10.8996C48.8659 9.76277 48.5067 8.85105 47.7883 8.16448C47.0699 7.47791 46.1223 7.13463 44.9455 7.13463H40.5027V18.3735H42.752V14.6647H44.4806L46.7107 18.3735H49.2385V18.149L46.897 14.4647V14.2717ZM46.0701 12.2488C45.9057 12.4063 45.7115 12.5289 45.4992 12.6094C45.2869 12.6899 45.0607 12.7265 44.834 12.7172H42.745V9.12064H44.7888C45.0206 9.10887 45.2525 9.14327 45.4711 9.22184C45.6898 9.30041 45.8909 9.42161 46.0631 9.57855C46.3782 9.88558 46.5366 10.3312 46.5366 10.9189C46.5366 11.5067 46.3852 11.9365 46.0701 12.2488Z" fill="white"/>
<path d="M56.0036 7.13463H52.1371V18.3735H56.0036C57.6144 18.3735 58.9033 17.8519 59.87 16.8086C60.8368 15.7653 61.3196 14.4138 61.3185 12.7541C61.3185 11.0932 60.8356 9.74173 59.87 8.69959C58.9044 7.65746 57.6156 7.1358 56.0036 7.13463ZM58.0926 15.4051C57.808 15.7236 57.4584 15.9763 57.0678 16.1459C56.6771 16.3155 56.2547 16.3979 55.8295 16.3875H54.3793V9.12064H55.8295C56.2533 9.10873 56.6747 9.18874 57.0651 9.35522C57.4556 9.5217 57.806 9.77076 58.0926 10.0856C58.688 10.7277 58.9857 11.6172 58.9857 12.7541C58.9926 13.8664 58.6955 14.7501 58.0944 15.4051H58.0926Z" fill="white"/>
<path d="M64.3685 18.3736H71.7654V16.3875H66.6159V13.5962H70.9472V11.7611H66.6159V9.12065H71.7654V7.13463H64.3685V18.3736Z" fill="white"/>
<path d="M81.2811 14.4594V14.2717C82.5937 13.6354 83.25 12.5114 83.25 10.8996C83.25 9.76277 82.8908 8.85105 82.1724 8.16448C81.454 7.47791 80.5064 7.13463 79.3295 7.13463H74.8868V18.3735H77.136V14.6647H78.8647L81.0948 18.3735H83.6225V18.149L81.2811 14.4594ZM80.4524 12.2488C80.2882 12.4066 80.0941 12.5294 79.8817 12.6098C79.6693 12.6903 79.4431 12.7268 79.2164 12.7172H77.1273V9.12064H79.1711C79.4027 9.10872 79.6344 9.14304 79.8528 9.22162C80.0711 9.3002 80.272 9.4215 80.4437 9.57855C80.7605 9.88558 80.919 10.3312 80.919 10.9189C80.919 11.5067 80.771 11.9365 80.4524 12.2488Z" fill="white"/>
<path d="M81.2811 14.2717C82.5937 13.6354 83.25 12.5114 83.25 10.8996C83.25 9.76277 82.8908 8.85105 82.1724 8.16448C81.454 7.47791 80.5064 7.13463 79.3295 7.13463H74.8868V18.3735H77.136V14.6647H78.8647L81.0948 18.3735H83.6225V18.149L81.2811 14.4647V14.2717ZM80.4524 12.2488C80.2882 12.4066 80.0941 12.5294 79.8817 12.6098C79.6693 12.6903 79.4431 12.7268 79.2164 12.7172H77.1273V9.12064H79.1711C79.4027 9.10872 79.6344 9.14304 79.8528 9.22162C80.0711 9.3002 80.272 9.4215 80.4437 9.57855C80.7605 9.88558 80.919 10.3312 80.919 10.9189C80.919 11.5067 80.771 11.9365 80.4524 12.2488Z" fill="white"/>
<path d="M91.0752 6.89077C90.3647 6.87208 89.6591 7.01489 89.0109 7.30859C88.3626 7.60229 87.7883 8.03935 87.3306 8.58732C86.358 9.71718 85.8717 11.1061 85.8717 12.7541C85.8717 14.4021 86.3609 15.7945 87.3393 16.9314C87.7951 17.4799 88.3676 17.9178 89.0144 18.2128C89.6611 18.5077 90.3655 18.652 91.0752 18.635C92.6118 18.635 93.8664 18.0671 94.839 16.9314C95.8115 15.7957 96.2978 14.4033 96.2978 12.7541C96.2978 11.1061 95.8115 9.71718 94.839 8.58732C93.8664 7.45746 92.6118 6.89194 91.0752 6.89077ZM93.1468 15.3945C92.9084 15.7199 92.5976 15.9844 92.2393 16.1666C91.881 16.3489 91.4852 16.4438 91.0839 16.4438C90.6825 16.4438 90.2868 16.3489 89.9285 16.1666C89.5702 15.9844 89.2593 15.7199 89.021 15.3945C88.4708 14.6927 88.1952 13.8155 88.194 12.7629C88.1929 11.7102 88.4685 10.8301 89.021 10.1225C89.2593 9.79706 89.5702 9.53259 89.9285 9.35034C90.2868 9.1681 90.6825 9.07317 91.0839 9.07317C91.4852 9.07317 91.881 9.1681 92.2393 9.35034C92.5976 9.53259 92.9084 9.79706 93.1468 10.1225C93.6981 10.8242 93.9738 11.7044 93.9738 12.7629C93.9738 13.8214 93.6981 14.6986 93.1468 15.3945Z" fill="white"/>
<path d="M104.012 9.06451C104.422 9.06254 104.828 9.1518 105.201 9.32592C105.46 9.43338 105.703 9.57561 105.925 9.74874C106.015 9.82976 106.096 9.92033 106.167 10.0189L107.45 8.27851L107.319 8.14693C107.203 8.01098 107.069 7.89278 106.919 7.79604C106.703 7.64358 106.476 7.50585 106.242 7.38375C105.926 7.22538 105.592 7.1075 105.248 7.03287C104.83 6.93654 104.402 6.88885 103.973 6.89076C102.388 6.89076 101.118 7.44985 100.164 8.56801C99.2103 9.68617 98.7333 11.0815 98.7333 12.7541C98.7333 14.4278 99.2103 15.8267 100.164 16.9507C101.118 18.0747 102.388 18.6361 103.973 18.635C104.405 18.6369 104.836 18.5868 105.256 18.4858C105.593 18.4115 105.92 18.2985 106.231 18.149C106.47 18.0264 106.697 17.8819 106.91 17.7174C107.053 17.6127 107.189 17.5003 107.319 17.3806C107.366 17.3339 107.41 17.2841 107.45 17.2314L106.167 15.4893L105.944 15.7331C105.723 15.9426 105.464 16.1076 105.182 16.2191C104.813 16.384 104.414 16.4671 104.012 16.463C103.602 16.4691 103.197 16.3768 102.83 16.1937C102.463 16.0107 102.145 15.7421 101.902 15.4103C101.349 14.7085 101.074 13.822 101.075 12.7506C101.076 11.6792 101.352 10.7956 101.902 10.0996C102.148 9.7717 102.467 9.50699 102.834 9.3271C103.2 9.1472 103.604 9.05722 104.012 9.06451Z" fill="white"/>
<path d="M119.27 7.3785V7.13463H116.539L112.413 12.1348V7.13463H110.164V18.3736H112.413V15.563L113.955 13.7085L116.762 18.3736H119.289V18.1297L115.461 11.9295L119.27 7.3785Z" fill="white"/>
<path d="M121.91 18.3736H129.307V16.3875H124.159V13.5962H128.49V11.7611H124.159V9.12065H129.307V7.13463H121.91V18.3736Z" fill="white"/>
<path d="M131.723 7.13463V9.12065H134.696V18.3736H136.946V9.12065H139.919V7.13463H131.723Z" fill="white"/>
<path fill-rule="evenodd" clip-rule="evenodd" d="M22.1519 0.297907C23.1895 0.240244 23.9333 0.407609 24.3059 0.783121C24.6785 1.15512 24.8453 1.90825 24.7874 2.95814C24.5941 6.46152 22.999 11.1153 21.2546 12.5218C19.5004 13.9352 17.0044 15.8486 16.0764 16.5575L12.3873 12.8748L12.3085 12.7953L8.65423 9.07745C9.35758 8.14148 11.2555 5.62681 12.658 3.85824C14.0515 2.10234 18.6721 0.492695 22.1519 0.297907ZM17.3908 8.38089C17.7627 8.63116 18.1998 8.76466 18.647 8.76452V8.76101C19.2459 8.76082 19.8202 8.52118 20.2439 8.09468C20.6677 7.66818 20.9062 7.08967 20.9071 6.48613C20.9071 6.03548 20.7745 5.59495 20.526 5.22025C20.2776 4.84556 19.9244 4.55353 19.5113 4.38111C19.0982 4.20868 18.6436 4.1636 18.205 4.25157C17.7664 4.33954 17.3636 4.55661 17.0474 4.87532C16.7313 5.19403 16.516 5.60006 16.4289 6.04207C16.3417 6.48408 16.3866 6.94221 16.5578 7.35852C16.729 7.77483 17.0189 8.13062 17.3908 8.38089ZM13.5846 18.1495L13.3983 18.4462C12.2059 20.3519 11.3678 21.6071 10.6087 21.7007C10.5012 21.713 10.3924 21.7004 10.2906 21.6639C10.1888 21.6273 10.0966 21.5677 10.0211 21.4897C9.83273 21.2991 9.72458 20.9658 9.56898 20.4391C9.53548 20.3259 9.49222 20.181 9.45175 20.0601C8.64304 20.4567 7.88107 20.7753 7.40519 20.4159C7.23633 20.2886 7.05282 20.032 7.13655 19.5397C7.15748 19.4167 7.1826 19.2838 7.21051 19.1431C7.21488 19.1199 7.21958 19.095 7.22452 19.0689C7.24407 18.9655 7.26735 18.8425 7.28797 18.7212C6.68858 19.1572 5.66007 19.9504 4.78576 20.6255C4.62219 20.7512 4.45775 20.8777 4.29443 21.0034C3.40782 21.6858 2.55397 22.3429 2.04841 22.6992C1.22853 23.2794 0.63193 23.3905 0.283045 23.0389L0.276069 23.0318C-0.0302521 22.7154 0.0269652 22.1437 0.428881 21.5959C0.830797 21.0481 2.10004 19.6241 3.44464 18.1171L3.59133 17.9524C3.93651 17.5649 4.28813 17.1702 4.6162 16.8007C4.88788 16.5018 5.14407 16.1889 5.38375 15.8634L5.10464 15.9238L5.061 15.9333C4.42118 16.0723 3.63648 16.2428 2.96249 16.3514C1.87327 16.5237 1.4546 16.492 1.24527 16.2107C1.18608 16.1318 1.15105 16.0372 1.14448 15.9385C1.13791 15.8398 1.16009 15.7414 1.20829 15.6552C1.30388 15.4696 1.50275 15.0835 5.3356 12.6448C6.66137 11.8044 7.9662 11.0035 8.61513 10.609L8.91517 10.9149L9.22358 11.2173C8.67304 11.5513 7.2775 12.4015 5.85614 13.3051C3.97914 14.4984 3.00017 15.1819 2.49079 15.5715C2.63802 15.5525 2.81875 15.5251 3.02808 15.4885C3.62101 15.3881 4.2908 15.2422 4.84588 15.1214C4.87739 15.1145 4.90853 15.1078 4.93927 15.1011C5.26653 15.0293 5.54912 14.9682 5.74101 14.9316C6.16735 14.8514 6.34667 15.0814 6.40459 15.1841C6.58322 15.5033 6.4011 15.876 6.07245 16.338C5.81514 16.6895 5.54008 17.0275 5.24838 17.3506C4.94475 17.6936 4.62148 18.0564 4.30148 18.4155C4.22585 18.5003 4.1504 18.585 4.07543 18.6691L4.07293 18.6719C2.80167 20.0972 1.48715 21.5709 1.10921 22.086C1.04516 22.1722 0.993263 22.2668 0.954999 22.3673C1.17932 22.2778 1.39057 22.1581 1.58299 22.0115C2.12948 21.6244 3.10748 20.8712 4.08749 20.1165C4.15608 20.0637 4.22468 20.0108 4.29314 19.9581C6.99002 17.8801 7.33471 17.6418 7.54823 17.5989C7.6297 17.5811 7.7143 17.5842 7.79428 17.6079C7.87425 17.6316 7.94703 17.6752 8.00597 17.7346C8.27112 18.0018 8.19786 18.454 8.03458 19.2978L8.03189 19.312C8.00707 19.4424 7.98366 19.5655 7.9648 19.6747C7.95783 19.6958 7.95783 19.7141 7.95783 19.7296C8.10532 19.7129 8.2499 19.6762 8.38765 19.6206C8.64278 19.5218 8.89268 19.4099 9.13636 19.2852C9.25451 19.2196 9.37857 19.1654 9.50688 19.1234C9.60289 19.101 9.70334 19.1076 9.79566 19.1424C9.88799 19.1771 9.96811 19.2385 10.026 19.3189C10.0887 19.4023 10.1395 19.4941 10.1767 19.5918C10.2301 19.7215 10.2775 19.8771 10.3285 20.0442C10.3436 20.0937 10.359 20.1441 10.3749 20.1951C10.4337 20.4122 10.505 20.6256 10.5884 20.8343C10.6966 20.7731 10.9485 20.5748 11.4188 19.942C11.843 19.3695 12.2987 18.6417 12.7006 17.9997C12.7638 17.898 12.8262 17.7986 12.8876 17.7015C13.0552 17.4309 13.3154 17.013 13.5524 16.6324C13.6971 16.4 13.8332 16.1814 13.9342 16.0188L14.2343 16.324L14.5336 16.6291C14.2531 17.0799 13.8268 17.7634 13.5846 18.1495Z" fill="white"/>
</svg>
