<svg width="150" height="150" viewBox="0 0 52 51"  fill="none" xmlns="http://www.w3.org/2000/svg">
<path fill-rule="evenodd" clip-rule="evenodd" d="M13.498 0.0434723H0.89267V12.6488H13.498V0.0434723ZM10.0251 3.51637H4.36556V9.17589H10.0251V3.51637ZM51.3139 37.8594L45.0112 37.8594V31.5567H38.7086H32.4059V37.8594L26.1033 37.8594V50.4647H38.7086H51.3139V37.8594ZM47.841 41.3323H42.1815V46.9918H47.841V41.3323ZM13.498 37.8594L7.19532 37.8594V31.5567H0.89267V37.8594V50.4647H13.498L19.8006 50.4647V44.162L26.1033 44.162V37.8594V31.5567H19.8006V37.8594L19.8006 44.162H13.498L13.498 37.8594ZM19.8006 6.34612H26.1033V12.6488H19.8006V6.34612ZM7.19532 15.8001H0.89267V22.1027H7.19532V15.8001ZM19.8006 31.5567V25.2541L26.1033 25.2541V12.6488H13.498V25.2541V31.5567H19.8006ZM47.3265 16.5718H41.0238V22.8745H47.3265V16.5718ZM26.1033 0.0434769H32.4059V6.34613H26.1033V0.0434769ZM38.7086 6.34612L38.7086 0.0434769H51.3139V12.6488L38.7086 12.6488H32.4059L32.4059 6.34613L38.7086 6.34612ZM38.7086 12.6488V25.2541V31.5567H32.4059V25.2541L26.1033 25.2541V12.6488L38.7086 12.6488ZM45.0112 25.2541H51.3139V31.5567H45.0112V25.2541Z" fill="#e61b75"/>
</svg>
