<svg width="156" height="39" viewBox="0 0 156 39" fill="none" xmlns="http://www.w3.org/2000/svg">
<path d="M79.0604 32.3402C78.6824 32.3402 78.3434 32.2772 78.0434 32.1512C77.7434 32.0192 77.5064 31.8392 77.3324 31.6112C77.1584 31.3772 77.0624 31.1102 77.0444 30.8102H77.8904C77.9144 31.0562 78.0284 31.2572 78.2324 31.4132C78.4424 31.5692 78.7154 31.6472 79.0514 31.6472C79.3634 31.6472 79.6094 31.5782 79.7894 31.4402C79.9694 31.3022 80.0594 31.1282 80.0594 30.9182C80.0594 30.7022 79.9634 30.5432 79.7714 30.4412C79.5794 30.3332 79.2824 30.2282 78.8804 30.1262C78.5144 30.0302 78.2144 29.9342 77.9804 29.8382C77.7524 29.7362 77.5544 29.5892 77.3864 29.3972C77.2244 29.1992 77.1434 28.9412 77.1434 28.6232C77.1434 28.3712 77.2184 28.1402 77.3684 27.9302C77.5184 27.7202 77.7314 27.5552 78.0074 27.4352C78.2834 27.3092 78.5984 27.2462 78.9524 27.2462C79.4984 27.2462 79.9394 27.3842 80.2754 27.6602C80.6114 27.9362 80.7914 28.3142 80.8154 28.7942H79.9964C79.9784 28.5362 79.8734 28.3292 79.6814 28.1732C79.4954 28.0172 79.2434 27.9392 78.9254 27.9392C78.6314 27.9392 78.3974 28.0022 78.2234 28.1282C78.0494 28.2542 77.9624 28.4192 77.9624 28.6232C77.9624 28.7852 78.0134 28.9202 78.1154 29.0282C78.2234 29.1302 78.3554 29.2142 78.5114 29.2802C78.6734 29.3402 78.8954 29.4092 79.1774 29.4872C79.5314 29.5832 79.8194 29.6792 80.0414 29.7752C80.2634 29.8652 80.4524 30.0032 80.6084 30.1892C80.7704 30.3752 80.8544 30.6182 80.8604 30.9182C80.8604 31.1882 80.7854 31.4312 80.6354 31.6472C80.4854 31.8632 80.2724 32.0342 79.9964 32.1602C79.7264 32.2802 79.4144 32.3402 79.0604 32.3402ZM83.0155 28.0022V30.9092C83.0155 31.1492 83.0665 31.3202 83.1685 31.4222C83.2705 31.5182 83.4475 31.5662 83.6995 31.5662H84.3025V32.2592H83.5645C83.1085 32.2592 82.7665 32.1542 82.5385 31.9442C82.3105 31.7342 82.1965 31.3892 82.1965 30.9092V28.0022H81.5575V27.3272H82.1965V26.0852H83.0155V27.3272H84.3025V28.0022H83.0155ZM84.9888 29.7752C84.9888 29.2712 85.0908 28.8302 85.2948 28.4522C85.4988 28.0682 85.7778 27.7712 86.1318 27.5612C86.4918 27.3512 86.8908 27.2462 87.3288 27.2462C87.7608 27.2462 88.1358 27.3392 88.4538 27.5252C88.7718 27.7112 89.0088 27.9452 89.1648 28.2272V27.3272H89.9928V32.2592H89.1648V31.3412C89.0028 31.6292 88.7598 31.8692 88.4358 32.0612C88.1178 32.2472 87.7458 32.3402 87.3198 32.3402C86.8818 32.3402 86.4858 32.2322 86.1318 32.0162C85.7778 31.8002 85.4988 31.4972 85.2948 31.1072C85.0908 30.7172 84.9888 30.2732 84.9888 29.7752ZM89.1648 29.7842C89.1648 29.4122 89.0898 29.0882 88.9398 28.8122C88.7898 28.5362 88.5858 28.3262 88.3278 28.1822C88.0758 28.0322 87.7968 27.9572 87.4908 27.9572C87.1848 27.9572 86.9058 28.0292 86.6538 28.1732C86.4018 28.3172 86.2008 28.5272 86.0508 28.8032C85.9008 29.0792 85.8258 29.4032 85.8258 29.7752C85.8258 30.1532 85.9008 30.4832 86.0508 30.7652C86.2008 31.0412 86.4018 31.2542 86.6538 31.4042C86.9058 31.5482 87.1848 31.6202 87.4908 31.6202C87.7968 31.6202 88.0758 31.5482 88.3278 31.4042C88.5858 31.2542 88.7898 31.0412 88.9398 30.7652C89.0898 30.4832 89.1648 30.1562 89.1648 29.7842ZM95.6249 27.3272L92.6549 34.5812H91.8089L92.7809 32.2052L90.7919 27.3272H91.7009L93.2489 31.3232L94.7789 27.3272H95.6249ZM98.5416 29.7842C98.5416 29.2742 98.6436 28.8302 98.8476 28.4522C99.0516 28.0682 99.3336 27.7712 99.6936 27.5612C100.06 27.3512 100.477 27.2462 100.945 27.2462C101.551 27.2462 102.049 27.3932 102.439 27.6872C102.835 27.9812 103.096 28.3892 103.222 28.9112H102.34C102.256 28.6112 102.091 28.3742 101.845 28.2002C101.605 28.0262 101.305 27.9392 100.945 27.9392C100.477 27.9392 100.099 28.1012 99.8106 28.4252C99.5226 28.7432 99.3786 29.1962 99.3786 29.7842C99.3786 30.3782 99.5226 30.8372 99.8106 31.1612C100.099 31.4852 100.477 31.6472 100.945 31.6472C101.305 31.6472 101.605 31.5632 101.845 31.3952C102.085 31.2272 102.25 30.9872 102.34 30.6752H103.222C103.09 31.1792 102.826 31.5842 102.43 31.8902C102.034 32.1902 101.539 32.3402 100.945 32.3402C100.477 32.3402 100.06 32.2352 99.6936 32.0252C99.3336 31.8152 99.0516 31.5182 98.8476 31.1342C98.6436 30.7502 98.5416 30.3002 98.5416 29.7842ZM106.465 32.3402C106.003 32.3402 105.583 32.2352 105.205 32.0252C104.833 31.8152 104.539 31.5182 104.323 31.1342C104.113 30.7442 104.008 30.2942 104.008 29.7842C104.008 29.2802 104.116 28.8362 104.332 28.4522C104.554 28.0622 104.854 27.7652 105.232 27.5612C105.61 27.3512 106.033 27.2462 106.501 27.2462C106.969 27.2462 107.392 27.3512 107.77 27.5612C108.148 27.7652 108.445 28.0592 108.661 28.4432C108.883 28.8272 108.994 29.2742 108.994 29.7842C108.994 30.2942 108.88 30.7442 108.652 31.1342C108.43 31.5182 108.127 31.8152 107.743 32.0252C107.359 32.2352 106.933 32.3402 106.465 32.3402ZM106.465 31.6202C106.759 31.6202 107.035 31.5512 107.293 31.4132C107.551 31.2752 107.758 31.0682 107.914 30.7922C108.076 30.5162 108.157 30.1802 108.157 29.7842C108.157 29.3882 108.079 29.0522 107.923 28.7762C107.767 28.5002 107.563 28.2962 107.311 28.1642C107.059 28.0262 106.786 27.9572 106.492 27.9572C106.192 27.9572 105.916 28.0262 105.664 28.1642C105.418 28.2962 105.22 28.5002 105.07 28.7762C104.92 29.0522 104.845 29.3882 104.845 29.7842C104.845 30.1862 104.917 30.5252 105.061 30.8012C105.211 31.0772 105.409 31.2842 105.655 31.4222C105.901 31.5542 106.171 31.6202 106.465 31.6202ZM116.002 27.2372C116.386 27.2372 116.728 27.3182 117.028 27.4802C117.328 27.6362 117.565 27.8732 117.739 28.1912C117.913 28.5092 118 28.8962 118 29.3522V32.2592H117.19V29.4692C117.19 28.9772 117.067 28.6022 116.821 28.3442C116.581 28.0802 116.254 27.9482 115.84 27.9482C115.414 27.9482 115.075 28.0862 114.823 28.3622C114.571 28.6322 114.445 29.0252 114.445 29.5412V32.2592H113.635V29.4692C113.635 28.9772 113.512 28.6022 113.266 28.3442C113.026 28.0802 112.699 27.9482 112.285 27.9482C111.859 27.9482 111.52 28.0862 111.268 28.3622C111.016 28.6322 110.89 29.0252 110.89 29.5412V32.2592H110.071V27.3272H110.89V28.0382C111.052 27.7802 111.268 27.5822 111.538 27.4442C111.814 27.3062 112.117 27.2372 112.447 27.2372C112.861 27.2372 113.227 27.3302 113.545 27.5162C113.863 27.7022 114.1 27.9752 114.256 28.3352C114.394 27.9872 114.622 27.7172 114.94 27.5252C115.258 27.3332 115.612 27.2372 116.002 27.2372ZM121.351 28.0022H120.316V32.2592H119.497V28.0022H118.858V27.3272H119.497V26.9762C119.497 26.4242 119.638 26.0222 119.92 25.7702C120.208 25.5122 120.667 25.3832 121.297 25.3832V26.0672C120.937 26.0672 120.682 26.1392 120.532 26.2832C120.388 26.4212 120.316 26.6522 120.316 26.9762V27.3272H121.351V28.0022ZM124.457 32.3402C123.995 32.3402 123.575 32.2352 123.197 32.0252C122.825 31.8152 122.531 31.5182 122.315 31.1342C122.105 30.7442 122 30.2942 122 29.7842C122 29.2802 122.108 28.8362 122.324 28.4522C122.546 28.0622 122.846 27.7652 123.224 27.5612C123.602 27.3512 124.025 27.2462 124.493 27.2462C124.961 27.2462 125.384 27.3512 125.762 27.5612C126.14 27.7652 126.437 28.0592 126.653 28.4432C126.875 28.8272 126.986 29.2742 126.986 29.7842C126.986 30.2942 126.872 30.7442 126.644 31.1342C126.422 31.5182 126.119 31.8152 125.735 32.0252C125.351 32.2352 124.925 32.3402 124.457 32.3402ZM124.457 31.6202C124.751 31.6202 125.027 31.5512 125.285 31.4132C125.543 31.2752 125.75 31.0682 125.906 30.7922C126.068 30.5162 126.149 30.1802 126.149 29.7842C126.149 29.3882 126.071 29.0522 125.915 28.7762C125.759 28.5002 125.555 28.2962 125.303 28.1642C125.051 28.0262 124.778 27.9572 124.484 27.9572C124.184 27.9572 123.908 28.0262 123.656 28.1642C123.41 28.2962 123.212 28.5002 123.062 28.7762C122.912 29.0522 122.837 29.3882 122.837 29.7842C122.837 30.1862 122.909 30.5252 123.053 30.8012C123.203 31.0772 123.401 31.2842 123.647 31.4222C123.893 31.5542 124.163 31.6202 124.457 31.6202ZM128.881 28.1282C129.025 27.8462 129.229 27.6272 129.493 27.4712C129.763 27.3152 130.09 27.2372 130.474 27.2372V28.0832H130.258C129.34 28.0832 128.881 28.5812 128.881 29.5772V32.2592H128.062V27.3272H128.881V28.1282ZM132.419 28.0022V30.9092C132.419 31.1492 132.47 31.3202 132.572 31.4222C132.674 31.5182 132.851 31.5662 133.103 31.5662H133.706V32.2592H132.968C132.512 32.2592 132.17 32.1542 131.942 31.9442C131.714 31.7342 131.6 31.3892 131.6 30.9092V28.0022H130.961V27.3272H131.6V26.0852H132.419V27.3272H133.706V28.0022H132.419ZM134.392 29.7752C134.392 29.2712 134.494 28.8302 134.698 28.4522C134.902 28.0682 135.181 27.7712 135.535 27.5612C135.895 27.3512 136.294 27.2462 136.732 27.2462C137.164 27.2462 137.539 27.3392 137.857 27.5252C138.175 27.7112 138.412 27.9452 138.568 28.2272V27.3272H139.396V32.2592H138.568V31.3412C138.406 31.6292 138.163 31.8692 137.839 32.0612C137.521 32.2472 137.149 32.3402 136.723 32.3402C136.285 32.3402 135.889 32.2322 135.535 32.0162C135.181 31.8002 134.902 31.4972 134.698 31.1072C134.494 30.7172 134.392 30.2732 134.392 29.7752ZM138.568 29.7842C138.568 29.4122 138.493 29.0882 138.343 28.8122C138.193 28.5362 137.989 28.3262 137.731 28.1822C137.479 28.0322 137.2 27.9572 136.894 27.9572C136.588 27.9572 136.309 28.0292 136.057 28.1732C135.805 28.3172 135.604 28.5272 135.454 28.8032C135.304 29.0792 135.229 29.4032 135.229 29.7752C135.229 30.1532 135.304 30.4832 135.454 30.7652C135.604 31.0412 135.805 31.2542 136.057 31.4042C136.309 31.5482 136.588 31.6202 136.894 31.6202C137.2 31.6202 137.479 31.5482 137.731 31.4042C137.989 31.2542 138.193 31.0412 138.343 30.7652C138.493 30.4832 138.568 30.1562 138.568 29.7842ZM141.599 28.2452C141.767 27.9512 142.013 27.7112 142.337 27.5252C142.661 27.3392 143.03 27.2462 143.444 27.2462C143.888 27.2462 144.287 27.3512 144.641 27.5612C144.995 27.7712 145.274 28.0682 145.478 28.4522C145.682 28.8302 145.784 29.2712 145.784 29.7752C145.784 30.2732 145.682 30.7172 145.478 31.1072C145.274 31.4972 144.992 31.8002 144.632 32.0162C144.278 32.2322 143.882 32.3402 143.444 32.3402C143.018 32.3402 142.643 32.2472 142.319 32.0612C142.001 31.8752 141.761 31.6382 141.599 31.3502V32.2592H140.78V25.5992H141.599V28.2452ZM144.947 29.7752C144.947 29.4032 144.872 29.0792 144.722 28.8032C144.572 28.5272 144.368 28.3172 144.11 28.1732C143.858 28.0292 143.579 27.9572 143.273 27.9572C142.973 27.9572 142.694 28.0322 142.436 28.1822C142.184 28.3262 141.98 28.5392 141.824 28.8212C141.674 29.0972 141.599 29.4182 141.599 29.7842C141.599 30.1562 141.674 30.4832 141.824 30.7652C141.98 31.0412 142.184 31.2542 142.436 31.4042C142.694 31.5482 142.973 31.6202 143.273 31.6202C143.579 31.6202 143.858 31.5482 144.11 31.4042C144.368 31.2542 144.572 31.0412 144.722 30.7652C144.872 30.4832 144.947 30.1532 144.947 29.7752ZM147.681 25.5992V32.2592H146.862V25.5992H147.681ZM153.577 29.6042C153.577 29.7602 153.568 29.9252 153.55 30.0992H149.608C149.638 30.5852 149.803 30.9662 150.103 31.2422C150.409 31.5122 150.778 31.6472 151.21 31.6472C151.564 31.6472 151.858 31.5662 152.092 31.4042C152.332 31.2362 152.5 31.0142 152.596 30.7382H153.478C153.346 31.2122 153.082 31.5992 152.686 31.8992C152.29 32.1932 151.798 32.3402 151.21 32.3402C150.742 32.3402 150.322 32.2352 149.95 32.0252C149.584 31.8152 149.296 31.5182 149.086 31.1342C148.876 30.7442 148.771 30.2942 148.771 29.7842C148.771 29.2742 148.873 28.8272 149.077 28.4432C149.281 28.0592 149.566 27.7652 149.932 27.5612C150.304 27.3512 150.73 27.2462 151.21 27.2462C151.678 27.2462 152.092 27.3482 152.452 27.5522C152.812 27.7562 153.088 28.0382 153.28 28.3982C153.478 28.7522 153.577 29.1542 153.577 29.6042ZM152.731 29.4332C152.731 29.1212 152.662 28.8542 152.524 28.6322C152.386 28.4042 152.197 28.2332 151.957 28.1192C151.723 27.9992 151.462 27.9392 151.174 27.9392C150.76 27.9392 150.406 28.0712 150.112 28.3352C149.824 28.5992 149.659 28.9652 149.617 29.4332H152.731Z" fill="white"/>
<path d="M50.5986 8.19456C49.9051 8.17607 49.2164 8.31535 48.5836 8.60203C47.9509 8.88871 47.3904 9.31543 46.9437 9.85046C45.9945 10.9532 45.5198 12.3089 45.5198 13.9174C45.5198 15.5259 45.9973 16.885 46.9522 17.9946C47.3971 18.53 47.9559 18.9574 48.5872 19.2453C49.2185 19.5331 49.906 19.674 50.5986 19.6574C52.0973 19.6574 53.3218 19.1031 54.2722 17.9946C55.2226 16.8861 55.6973 15.5271 55.6961 13.9174C55.6961 12.3089 55.2215 10.9532 54.2722 9.85046C53.8224 9.31444 53.2586 8.88728 52.6227 8.60064C51.9868 8.314 51.295 8.17521 50.5986 8.19456ZM52.6207 16.4946C52.388 16.8122 52.0846 17.0703 51.7349 17.2482C51.3851 17.4261 50.9989 17.5187 50.6071 17.5187C50.2154 17.5187 49.8291 17.4261 49.4794 17.2482C49.1297 17.0703 48.8263 16.8122 48.5936 16.4946C48.0556 15.8096 47.7865 14.9534 47.7865 13.926C47.7865 12.8985 48.0556 12.0395 48.5936 11.3488C48.8263 11.0312 49.1297 10.7731 49.4794 10.5952C49.8291 10.4173 50.2154 10.3247 50.6071 10.3247C50.9989 10.3247 51.3851 10.4173 51.7349 10.5952C52.0846 10.7731 52.388 11.0312 52.6207 11.3488C53.1587 12.0338 53.4278 12.8928 53.4278 13.926C53.4278 14.9591 53.1587 15.8153 52.6207 16.4946Z" fill="white"/>
<path d="M64.8937 15.3986C66.1749 14.7776 66.8155 13.6805 66.8155 12.1074C66.8155 10.9977 66.4649 10.1079 65.7637 9.43774C65.0625 8.76762 64.1376 8.43256 62.989 8.43256H58.6527V19.4022H60.848V15.7822H62.5353L64.7119 19.4022H67.1791V19.183L64.8937 15.587V15.3986ZM64.0866 13.4242C63.9262 13.578 63.7367 13.6976 63.5295 13.7762C63.3222 13.8547 63.1015 13.8905 62.8802 13.8814H60.8412V10.371H62.8361C63.0623 10.3595 63.2887 10.3931 63.5021 10.4698C63.7155 10.5464 63.9118 10.6647 64.0798 10.8179C64.3874 11.1176 64.542 11.5525 64.542 12.1262C64.542 12.6999 64.3942 13.1194 64.0866 13.4242Z" fill="white"/>
<path d="M73.7821 8.43256H70.0082V19.4022H73.7821C75.3544 19.4022 76.6123 18.8931 77.5559 17.8748C78.4995 16.8565 78.9708 15.5373 78.9696 13.9174C78.9696 12.2963 78.4984 10.9772 77.5559 9.96003C76.6135 8.94286 75.3555 8.4337 73.7821 8.43256ZM75.8211 16.5048C75.5433 16.8158 75.2021 17.0624 74.8208 17.228C74.4395 17.3935 74.0272 17.4739 73.6122 17.4638H72.1968V10.371H73.6122C74.0258 10.3594 74.4371 10.4375 74.8182 10.5999C75.1993 10.7624 75.5413 11.0055 75.8211 11.3128C76.4022 11.9396 76.6928 12.8078 76.6928 13.9174C76.6996 15.0031 76.4096 15.8655 75.8228 16.5048H75.8211Z" fill="white"/>
<path d="M81.9466 19.4022H89.1664V17.4638H84.1402V14.7393H88.3678V12.9482H84.1402V10.371H89.1664V8.43256H81.9466V19.4022Z" fill="white"/>
<path d="M98.454 15.5818V15.3986C99.7352 14.7776 100.376 13.6805 100.376 12.1074C100.376 10.9977 100.025 10.1079 99.324 9.43774C98.6228 8.76762 97.6979 8.43256 96.5492 8.43256H92.213V19.4022H94.4083V15.7822H96.0955L98.2722 19.4022H100.739V19.183L98.454 15.5818ZM97.6452 13.4242C97.4849 13.5782 97.2954 13.698 97.0882 13.7766C96.8809 13.8551 96.66 13.8908 96.4388 13.8814H94.3998V10.371H96.3946C96.6206 10.3593 96.8467 10.3928 97.0599 10.4695C97.2731 10.5462 97.4691 10.6646 97.6367 10.8179C97.9459 11.1176 98.1006 11.5525 98.1006 12.1262C98.1006 12.6999 97.9561 13.1194 97.6452 13.4242Z" fill="white"/>
<path d="M98.454 15.3986C99.7352 14.7776 100.376 13.6805 100.376 12.1074C100.376 10.9977 100.025 10.1079 99.324 9.43774C98.6228 8.76762 97.6979 8.43256 96.5492 8.43256H92.213V19.4022H94.4083V15.7822H96.0955L98.2722 19.4022H100.739V19.183L98.454 15.587V15.3986ZM97.6452 13.4242C97.4849 13.5782 97.2954 13.698 97.0882 13.7766C96.8809 13.8551 96.66 13.8908 96.4388 13.8814H94.3998V10.371H96.3946C96.6206 10.3593 96.8467 10.3928 97.0599 10.4695C97.2731 10.5462 97.4691 10.6646 97.6367 10.8179C97.9459 11.1176 98.1006 11.5525 98.1006 12.1262C98.1006 12.6999 97.9561 13.1194 97.6452 13.4242Z" fill="white"/>
<path d="M108.014 8.19452C107.32 8.17628 106.631 8.31567 105.999 8.60233C105.366 8.88899 104.805 9.31558 104.359 9.85042C103.409 10.9532 102.935 12.3089 102.935 13.9174C102.935 15.5259 103.412 16.885 104.367 17.9946C104.812 18.5299 105.371 18.9574 106.002 19.2453C106.633 19.5331 107.321 19.674 108.014 19.6573C109.513 19.6573 110.738 19.1031 111.687 17.9946C112.636 16.8861 113.111 15.527 113.111 13.9174C113.111 12.3089 112.636 10.9532 111.687 9.85042C110.738 8.74763 109.513 8.19566 108.014 8.19452ZM110.036 16.4945C109.803 16.8121 109.499 17.0703 109.15 17.2481C108.8 17.426 108.414 17.5187 108.022 17.5187C107.63 17.5187 107.244 17.426 106.894 17.2481C106.545 17.0703 106.241 16.8121 106.008 16.4945C105.472 15.8096 105.203 14.9534 105.201 13.9259C105.2 12.8985 105.469 12.0394 106.008 11.3488C106.241 11.0312 106.545 10.773 106.894 10.5952C107.244 10.4173 107.63 10.3246 108.022 10.3246C108.414 10.3246 108.8 10.4173 109.15 10.5952C109.499 10.773 109.803 11.0312 110.036 11.3488C110.574 12.0337 110.843 12.8928 110.843 13.9259C110.843 14.9591 110.574 15.8153 110.036 16.4945Z" fill="white"/>
<path d="M120.64 10.3162C121.041 10.3143 121.437 10.4014 121.801 10.5713C122.054 10.6762 122.291 10.815 122.507 10.984C122.595 11.0631 122.675 11.1515 122.744 11.2477L123.996 9.54902L123.868 9.42059C123.755 9.2879 123.624 9.17252 123.478 9.07811C123.266 8.9293 123.046 8.79486 122.817 8.6757C122.509 8.52112 122.183 8.40606 121.846 8.33322C121.438 8.23919 121.021 8.19265 120.603 8.19451C119.055 8.19451 117.816 8.74021 116.885 9.83158C115.954 10.923 115.488 12.2849 115.488 13.9174C115.488 15.551 115.954 16.9164 116.885 18.0134C117.816 19.1105 119.055 19.6585 120.603 19.6574C121.024 19.6592 121.445 19.6104 121.855 19.5118C122.184 19.4392 122.503 19.3289 122.806 19.183C123.04 19.0633 123.262 18.9223 123.469 18.7618C123.608 18.6596 123.741 18.5499 123.868 18.433C123.914 18.3875 123.957 18.3388 123.996 18.2874L122.744 16.587L122.526 16.825C122.31 17.0295 122.058 17.1905 121.782 17.2994C121.423 17.4603 121.033 17.5415 120.64 17.5374C120.24 17.5434 119.845 17.4533 119.487 17.2746C119.129 17.0959 118.818 16.8338 118.581 16.51C118.041 15.825 117.772 14.9597 117.774 13.914C117.775 12.8682 118.044 12.0058 118.581 11.3265C118.821 11.0064 119.132 10.7481 119.49 10.5725C119.848 10.3969 120.242 10.3091 120.64 10.3162Z" fill="white"/>
<path d="M135.533 8.67058V8.43256H132.867L128.84 13.3129V8.43256H126.645V19.4022H128.84V16.659L130.346 14.8489L133.085 19.4022H135.552V19.1642L131.815 13.1126L135.533 8.67058Z" fill="white"/>
<path d="M138.109 19.4022H145.329V17.4638H140.304V14.7393H144.532V12.9482H140.304V10.371H145.329V8.43256H138.109V19.4022Z" fill="white"/>
<path d="M147.687 8.43256V10.371H150.59V19.4022H152.785V10.371H155.687V8.43256H147.687Z" fill="white"/>
<path d="M22.6214 30.3824L22.9276 29.8947C23.3255 29.2602 24.0262 28.1369 24.4872 27.3961L23.9952 26.8945L23.5021 26.3929C23.064 27.0979 22.2257 28.442 21.7819 29.1585C21.681 29.318 21.5786 29.4814 21.4746 29.6486C20.814 30.7037 20.0652 31.8999 19.368 32.8407C18.595 33.8808 18.181 34.2067 18.0033 34.3073C17.8662 33.9643 17.749 33.6135 17.6524 33.2567C17.5377 32.8892 17.4402 32.5413 17.3267 32.2651C17.2655 32.1046 17.1821 31.9537 17.079 31.8167C16.9838 31.6846 16.8521 31.5837 16.7004 31.5265C16.5487 31.4694 16.3836 31.4586 16.2258 31.4954C16.0149 31.5644 15.811 31.6534 15.6168 31.7612C15.2163 31.9662 14.8056 32.1502 14.3863 32.3125C14.1599 32.404 13.9223 32.4642 13.6799 32.4916C13.6799 32.4662 13.6799 32.4362 13.6914 32.4015C13.7235 32.2154 13.7636 32.0051 13.8061 31.782C14.0744 30.3952 14.1948 29.652 13.759 29.2129C13.6622 29.1152 13.5425 29.0436 13.4111 29.0047C13.2797 28.9657 13.1406 28.9606 13.0067 28.9898C12.6558 29.0603 12.0893 29.4521 7.657 32.8672C5.93682 34.1917 4.16389 35.5612 3.20288 36.2419C2.88664 36.483 2.53944 36.6797 2.17078 36.8267C2.23366 36.6616 2.31896 36.506 2.42422 36.3645C3.04578 35.5173 5.20861 33.0926 7.2992 30.7488C7.94369 30.0253 8.60997 29.2787 9.22694 28.5818C9.70635 28.0508 10.1584 27.4953 10.5813 26.9176C11.1214 26.1583 11.4207 25.5458 11.1272 25.0211C11.032 24.8523 10.7373 24.4744 10.0366 24.6062C9.72121 24.6663 9.25676 24.7668 8.71892 24.8847C7.77856 25.0893 6.60769 25.347 5.57787 25.5215C5.23384 25.5816 4.93682 25.6267 4.69485 25.6579C5.532 25.0176 7.14094 23.8942 10.2258 21.933C12.5618 20.4479 14.8554 19.0506 15.7602 18.5017L15.2533 18.0047L14.7602 17.502C13.6937 18.1503 11.5492 19.4667 9.37029 20.8478C3.07101 24.8558 2.74417 25.4903 2.58706 25.7954C2.50784 25.937 2.47139 26.0988 2.48219 26.261C2.49298 26.4232 2.55056 26.5787 2.64784 26.7084C2.99188 27.1707 3.67995 27.2227 5.47008 26.9396C6.6031 26.757 7.92649 26.468 8.99071 26.2369L9.44942 26.1375C9.05551 26.6725 8.63446 27.1868 8.18796 27.6781C7.57213 28.3715 6.90585 29.1192 6.2625 29.8416C4.05265 32.3183 1.96665 34.6586 1.3061 35.5589C0.645556 36.4592 0.551519 37.3988 1.05496 37.9189L1.06642 37.9304C1.63981 38.5083 2.62032 38.3257 3.96779 37.3722C4.95173 36.6788 6.73842 35.2919 8.46662 33.964C9.90355 32.8545 11.5939 31.5509 12.579 30.8343C12.5366 31.084 12.4873 31.3382 12.4517 31.5278C12.4058 31.7589 12.3645 31.9773 12.3301 32.1796C12.1925 32.9886 12.4941 33.4104 12.7717 33.6196C13.5538 34.2102 14.806 33.6866 16.1352 33.0348C16.2017 33.2336 16.2728 33.4717 16.3278 33.6578C16.5836 34.5234 16.7613 35.0712 17.0709 35.3844C17.195 35.5126 17.3465 35.6105 17.5138 35.6706C17.6812 35.7307 17.86 35.7514 18.0365 35.7311C19.2842 35.5774 20.6615 33.5144 22.6214 30.3824Z" fill="white"/>
<path d="M40.5479 1.35314C39.9355 0.735982 38.7131 0.460918 37.0078 0.555687C31.2888 0.875821 23.6948 3.52126 21.4047 6.40709C19.0996 9.31373 15.9804 13.4466 14.8244 14.9848L20.8301 21.0951L20.9597 21.2257L27.0228 27.2782C28.548 26.1133 32.65 22.9685 35.533 20.6456C38.4 18.3341 41.0215 10.6856 41.3392 4.92777C41.4344 3.20229 41.1603 1.96451 40.5479 1.35314ZM31.2475 14.4705C30.5126 14.4708 29.7941 14.2514 29.1829 13.84C28.5718 13.4287 28.0953 12.844 27.8139 12.1598C27.5325 11.4756 27.4588 10.7227 27.602 9.99621C27.7453 9.26976 28.0991 8.60244 28.6186 8.07865C29.1382 7.55485 29.8003 7.1981 30.5211 7.05352C31.2418 6.90895 31.989 6.98303 32.668 7.26641C33.347 7.54979 33.9274 8.02974 34.3357 8.64555C34.744 9.26136 34.9619 9.98537 34.9619 10.726C34.9604 11.7179 34.5684 12.6687 33.872 13.3697C33.1757 14.0706 32.2317 14.4645 31.2475 14.4648V14.4705Z" fill="white"/>
</svg>
