<svg width="67" height="66" viewBox="0 0 67 66" fill="none" xmlns="http://www.w3.org/2000/svg">
<path d="M7.40672 29.8197C0.138666 37.0877 0.138655 48.8715 7.40671 56.1396L9.47809 58.211C16.7461 65.479 28.53 65.479 35.798 58.211L46.2017 47.8074M7.14451 30.0819L11.3688 25.8576C12.9368 24.2896 15.479 24.2896 17.047 25.8576C18.615 27.4256 18.615 29.9678 17.047 31.5359L12.8228 35.7601L30.7083 17.8746C32.2763 16.3066 34.8186 16.3066 36.3866 17.8746C37.9546 19.4426 37.9546 21.9849 36.3866 23.5529L24.3598 35.5796L39.0673 20.8721C40.6353 19.3041 43.1775 19.3041 44.7455 20.8721C46.3135 22.4401 46.3135 24.9824 44.7455 26.5504L30.038 41.2578L42.7959 28.5C44.3639 26.932 46.9062 26.932 48.4742 28.5C50.0422 30.068 50.0422 32.6103 48.4742 34.1783L35.7163 46.9361L45.3873 37.2652C46.9553 35.6972 49.4975 35.6972 51.0655 37.2652C52.6336 38.8332 52.6336 41.3755 51.0655 42.9435L41.3946 52.6144M58.7399 46.6256L48.3363 57.0292C43.4562 61.9092 36.5404 63.5126 30.3225 61.8394M51.7639 19.532L50.4386 20.8573M55.0863 27.566L57.2837 25.3686C58.8517 23.8006 58.8517 21.2583 57.2837 19.6903C55.7157 18.1223 53.1735 18.1223 51.6055 19.6903L50.7294 20.5663M58.9411 35.0677L61.0124 32.9965C62.5804 31.4285 62.5804 28.8863 61.0124 27.3182C59.4444 25.7502 56.9021 25.7502 55.3341 27.3182L54.2202 28.4321M53.9328 51.4326L63.6038 41.7617C65.1718 40.1937 65.1718 37.6514 63.6038 36.0834C62.0357 34.5154 59.4935 34.5154 57.9255 36.0834L57.4512 36.5578M52.5445 5.07555L47.6067 10.0134M42.0169 1.54044L42.0169 6.8948M36.444 10.658L31.5062 5.72017" stroke="#0066E0" stroke-width="3" stroke-linecap="round"/>
</svg>
